<svg xmlns="http://www.w3.org/2000/svg" viewBox="0.5 0.5 10 10" stroke="#1B2D37" stroke-width=".04"><circle fill="deeppink" cx="1" cy="1" r="0.12473901179330094" style="animation:scale 1.038399806458906s reverse;"/><circle fill="deeppink" cx="2" cy="1" r="0.14051999728519823" style="animation:scale 1.0001336599136816s reverse;"/><circle fill="deeppink" cx="3" cy="1" r="0.4428180522988268" style="animation:scale 0.33709614106361363s reverse;"/><circle fill="blueviolet" cx="4" cy="1" r="0.05628090685789817" style="animation:scale 0.027828365242917295s reverse;"/><circle fill="blueviolet" cx="5" cy="1" r="0.17649029704227054" style="animation:scale 0.18224039581944695s reverse;"/><circle fill="blueviolet" cx="6" cy="1" r="0.13649958325837527" style="animation:scale 0.9994412575486438s reverse;"/><circle fill="blueviolet" cx="7" cy="1" r="0.1499794035365412" style="animation:scale 0.4611013098051965s reverse;"/><circle fill="blueviolet" cx="8" cy="1" r="0.46988681156862605" style="animation:scale 1.2372180455715152s reverse;"/><circle fill="blueviolet" cx="9" cy="1" r="0.38705893319355134" style="animation:scale 0.0846900344868606s reverse;"/><circle fill="deeppink" cx="10" cy="1" r="0.34654648991909454" style="animation:scale 0.6118085638863797s reverse;"/><circle fill="deeppink" cx="1" cy="2" r="0.19972915869092367" style="animation:scale 0.3507071480067231s reverse;"/><circle fill="deeppink" cx="2" cy="2" r="0.313388902581638" style="animation:scale 1.2006643652447684s reverse;"/><circle fill="blueviolet" cx="3" cy="2" r="0.20953338385375153" style="animation:scale 0.577384187648021s reverse;"/><circle fill="deeppink" cx="4" cy="2" r="0.4379830670480397" style="animation:scale 0.9417520863700023s reverse;"/><circle fill="deeppink" cx="5" cy="2" r="0.1053355108638056" style="animation:scale 1.3248217013032844s reverse;"/><circle fill="blueviolet" cx="6" cy="2" r="0.28630486264042376" style="animation:scale 0.2839566839698313s reverse;"/><circle fill="yellow" cx="7" cy="2" r="0.24339783000757298" style="animation:scale 1.6809264962806387s reverse;"/><circle fill="deeppink" cx="8" cy="2" r="0.3529186292219849" style="animation:scale 0.2680140040406919s reverse;"/><circle fill="yellow" cx="9" cy="2" r="0.13220362288704726" style="animation:scale 1.1477644574214163s reverse;"/><circle fill="blueviolet" cx="10" cy="2" r="0.19977032617236395" style="animation:scale 0.6589097490776167s reverse;"/><circle fill="deeppink" cx="1" cy="3" r="0.37951925752084065" style="animation:scale 0.595934741608389s reverse;"/><circle fill="deeppink" cx="2" cy="3" r="0.11643200451288724" style="animation:scale 0.05559401232074952s reverse;"/><circle fill="blueviolet" cx="3" cy="3" r="0.38540725585857766" style="animation:scale 1.7978977850199707s reverse;"/><circle fill="deeppink" cx="4" cy="3" r="0.053211301883832" style="animation:scale 0.18852508288682243s reverse;"/><circle fill="blueviolet" cx="5" cy="3" r="0.11744383892045893" style="animation:scale 0.1888741764983678s reverse;"/><circle fill="blueviolet" cx="6" cy="3" r="0.41805921205249763" style="animation:scale 1.139021908833297s reverse;"/><circle fill="deeppink" cx="7" cy="3" r="0.4087222643305943" style="animation:scale 1.9837456216068483s reverse;"/><circle fill="deeppink" cx="8" cy="3" r="0.44464788746517986" style="animation:scale 0.05177354262866347s reverse;"/><circle fill="blueviolet" cx="9" cy="3" r="0.06570327982101756" style="animation:scale 1.2976296642156109s reverse;"/><circle fill="deeppink" cx="10" cy="3" r="0.13302876532600577" style="animation:scale 0.36805899240678536s reverse;"/><circle fill="deeppink" cx="1" cy="4" r="0.22636946027618166" style="animation:scale 1.5212323459710624s reverse;"/><circle fill="deeppink" cx="2" cy="4" r="0.35835340224062207" style="animation:scale 1.1695458390901416s reverse;"/><circle fill="yellow" cx="3" cy="4" r="0.17164663906845512" style="animation:scale 1.2853029032992414s reverse;"/><circle fill="blueviolet" cx="4" cy="4" r="0.2545724023625942" style="animation:scale 0.5908871944019106s reverse;"/><circle fill="yellow" cx="5" cy="4" r="0.15224952542705844" style="animation:scale 0.07835072874654672s reverse;"/><circle fill="yellow" cx="6" cy="4" r="0.27894349363842724" style="animation:scale 0.9547847955664072s reverse;"/><circle fill="deeppink" cx="7" cy="4" r="0.31877066484497324" style="animation:scale 0.2549093193741042s reverse;"/><circle fill="blueviolet" cx="8" cy="4" r="0.1757111719707476" style="animation:scale 1.2496173634703212s reverse;"/><circle fill="deeppink" cx="9" cy="4" r="0.29857347333125994" style="animation:scale 0.2687447555970272s reverse;"/><circle fill="deeppink" cx="10" cy="4" r="0.08570464814015227" style="animation:scale 0.5084570736314475s reverse;"/><circle fill="blueviolet" cx="1" cy="5" r="0.0689979818828087" style="animation:scale 0.08436428865486038s reverse;"/><circle fill="yellow" cx="2" cy="5" r="0.18137974359167974" style="animation:scale 0.21963959529764915s reverse;"/><circle fill="deeppink" cx="3" cy="5" r="0.30766469020667464" style="animation:scale 0.450900465656925s reverse;"/><circle fill="deeppink" cx="4" cy="5" r="0.06670027125335162" style="animation:scale 0.24819261673774667s reverse;"/><circle fill="blueviolet" cx="5" cy="5" r="0.4213927749102272" style="animation:scale 1.5951735469624615s reverse;"/><circle fill="blueviolet" cx="6" cy="5" r="0.474157257459088" style="animation:scale 0.6811656278617285s reverse;"/><circle fill="yellow" cx="7" cy="5" r="0.4641310783491161" style="animation:scale 0.8625185685616648s reverse;"/><circle fill="deeppink" cx="8" cy="5" r="0.1601811036136904" style="animation:scale 1.9975464466387003s reverse;"/><circle fill="yellow" cx="9" cy="5" r="0.2916328078560312" style="animation:scale 0.24090288958040929s reverse;"/><circle fill="deeppink" cx="10" cy="5" r="0.12249622547283374" style="animation:scale 0.6659775072957012s reverse;"/><circle fill="yellow" cx="1" cy="6" r="0.4600925115597878" style="animation:scale 1.0350915167799004s reverse;"/><circle fill="deeppink" cx="2" cy="6" r="0.39307688464289003" style="animation:scale 0.4126160859137447s reverse;"/><circle fill="deeppink" cx="3" cy="6" r="0.311621894422858" style="animation:scale 1.7454575120630216s reverse;"/><circle fill="yellow" cx="4" cy="6" r="0.16429271327409922" style="animation:scale 1.529314501780023s reverse;"/><circle fill="blueviolet" cx="5" cy="6" r="0.3041784503345425" style="animation:scale 1.5758901735268207s reverse;"/><circle fill="blueviolet" cx="6" cy="6" r="0.43620999016451023" style="animation:scale 1.8410624792742663s reverse;"/><circle fill="yellow" cx="7" cy="6" r="0.0997397734435173" style="animation:scale 1.9137281977363676s reverse;"/><circle fill="yellow" cx="8" cy="6" r="0.4221172008323433" style="animation:scale 0.44815538728681964s reverse;"/><circle fill="blueviolet" cx="9" cy="6" r="0.10568631935427247" style="animation:scale 1.610226467150199s reverse;"/><circle fill="blueviolet" cx="10" cy="6" r="0.2918872215948422" style="animation:scale 1.8600992135783794s reverse;"/><circle fill="blueviolet" cx="1" cy="7" r="0.1450430405718225" style="animation:scale 1.2907233740506965s reverse;"/><circle fill="deeppink" cx="2" cy="7" r="0.13595982121104944" style="animation:scale 1.1023855215166465s reverse;"/><circle fill="deeppink" cx="3" cy="7" r="0.44086136771953344" style="animation:scale 1.233109568786493s reverse;"/><circle fill="blueviolet" cx="4" cy="7" r="0.304156837716583" style="animation:scale 1.3157430918884447s reverse;"/><circle fill="blueviolet" cx="5" cy="7" r="0.07123712505241178" style="animation:scale 1.9738784339319952s reverse;"/><circle fill="deeppink" cx="6" cy="7" r="0.2787019519200113" style="animation:scale 0.1802925518500105s reverse;"/><circle fill="yellow" cx="7" cy="7" r="0.34213282948305784" style="animation:scale 1.6759178123558067s reverse;"/><circle fill="deeppink" cx="8" cy="7" r="0.14228756682382587" style="animation:scale 0.5674098139902205s reverse;"/><circle fill="blueviolet" cx="9" cy="7" r="0.43476270719495896" style="animation:scale 0.35813692955658943s reverse;"/><circle fill="deeppink" cx="10" cy="7" r="0.3477322165772067" style="animation:scale 1.5457042622446198s reverse;"/><circle fill="yellow" cx="1" cy="8" r="0.41176810213324105" style="animation:scale 1.6919257919232829s reverse;"/><circle fill="deeppink" cx="2" cy="8" r="0.15479461860056798" style="animation:scale 1.1836538977847986s reverse;"/><circle fill="blueviolet" cx="3" cy="8" r="0.12797731349340435" style="animation:scale 1.976740136328179s reverse;"/><circle fill="deeppink" cx="4" cy="8" r="0.40901183713653394" style="animation:scale 1.9912366422007173s reverse;"/><circle fill="deeppink" cx="5" cy="8" r="0.43946481703014334" style="animation:scale 1.8653437353346796s reverse;"/><circle fill="deeppink" cx="6" cy="8" r="0.15686078425386962" style="animation:scale 0.8614608034794096s reverse;"/><circle fill="yellow" cx="7" cy="8" r="0.09951039830154729" style="animation:scale 0.3095078709705534s reverse;"/><circle fill="blueviolet" cx="8" cy="8" r="0.128256836032718" style="animation:scale 1.3323509398758726s reverse;"/><circle fill="blueviolet" cx="9" cy="8" r="0.21464856666347504" style="animation:scale 0.7425466322913699s reverse;"/><circle fill="deeppink" cx="10" cy="8" r="0.3942788398030098" style="animation:scale 0.32084518717728433s reverse;"/><circle fill="yellow" cx="1" cy="9" r="0.1069110532920799" style="animation:scale 1.7489945020706303s reverse;"/><circle fill="yellow" cx="2" cy="9" r="0.22080070445435185" style="animation:scale 1.3345971746746934s reverse;"/><circle fill="blueviolet" cx="3" cy="9" r="0.3176594592127298" style="animation:scale 0.08053860152285545s reverse;"/><circle fill="deeppink" cx="4" cy="9" r="0.4371594588967341" style="animation:scale 1.0215212808167835s reverse;"/><circle fill="blueviolet" cx="5" cy="9" r="0.19145704008054776" style="animation:scale 1.1421534924888708s reverse;"/><circle fill="blueviolet" cx="6" cy="9" r="0.28817866140667264" style="animation:scale 1.0909814126900628s reverse;"/><circle fill="deeppink" cx="7" cy="9" r="0.12260963666356613" style="animation:scale 1.7063668432231685s reverse;"/><circle fill="yellow" cx="8" cy="9" r="0.448012786482033" style="animation:scale 1.4954339180704257s reverse;"/><circle fill="yellow" cx="9" cy="9" r="0.2445544884528103" style="animation:scale 0.6424154156696965s reverse;"/><circle fill="deeppink" cx="10" cy="9" r="0.08246041621815267" style="animation:scale 0.5306365503933134s reverse;"/><circle fill="yellow" cx="1" cy="10" r="0.18318177895212462" style="animation:scale 1.8011838893865513s reverse;"/><circle fill="deeppink" cx="2" cy="10" r="0.19271858178985068" style="animation:scale 0.5282846811358544s reverse;"/><circle fill="deeppink" cx="3" cy="10" r="0.4790535750174872" style="animation:scale 0.7102845807056393s reverse;"/><circle fill="blueviolet" cx="4" cy="10" r="0.21061262026732497" style="animation:scale 0.6594174278923026s reverse;"/><circle fill="deeppink" cx="5" cy="10" r="0.1101846394897255" style="animation:scale 0.09304542754460739s reverse;"/><circle fill="deeppink" cx="6" cy="10" r="0.31343345662377176" style="animation:scale 0.7177615826909844s reverse;"/><circle fill="yellow" cx="7" cy="10" r="0.0929405670922464" style="animation:scale 1.7844039445544908s reverse;"/><circle fill="deeppink" cx="8" cy="10" r="0.33050329168270165" style="animation:scale 0.1305958602897587s reverse;"/><circle fill="yellow" cx="9" cy="10" r="0.23985630148340154" style="animation:scale 0.8606272998653435s reverse;"/><circle fill="yellow" cx="10" cy="10" r="0.17505545744884032" style="animation:scale 0.5791191350838308s reverse;"/><style>@keyframes scale{to{r:0}}</style></svg>