<svg xmlns="http://www.w3.org/2000/svg" viewBox="0.5 0.5 12 12" stroke="none"><rect x="0.5" y="0.5" width="12" height="12" fill="#101216"/><circle fill="#e2b87a" fill-opacity="1" cx="1" cy="1" r="0.0844516657551527"/><circle fill="#e2b87a" fill-opacity="1" cx="2" cy="1" r="0.09411595527893624"/><circle fill="#e2b87a" fill-opacity="1" cx="3" cy="1" r="0.30277907311093916"/><circle fill="#6b542e" fill-opacity="1" cx="4" cy="1" r="0.2269552205260288"/><circle fill="#e2b87a" fill-opacity="1" cx="5" cy="1" r="0.042333116787699"/><circle fill="#e2b87a" fill-opacity="1" cx="6" cy="1" r="0.1766939923101653"/><circle fill="#e2b87a" fill-opacity="1" cx="7" cy="1" r="0.3187150992387302"/><circle fill="#6b542e" fill-opacity="1" cx="8" cy="1" r="0.13932444328608548"/><circle fill="#e2b87a" fill-opacity="1" cx="9" cy="1" r="0.054181655527616494"/><circle fill="#e2b87a" fill-opacity="1" cx="10" cy="1" r="0.26056802444780935"/><circle fill="#e2b87a" fill-opacity="1" cx="11" cy="1" r="0.2802731242650596"/><circle fill="#6b542e" fill-opacity="1" cx="12" cy="1" r="0.06763897755102213"/><circle fill="#e2b87a" fill-opacity="1" cx="1" cy="2" r="0.14125219194147515"/><circle fill="#e2b87a" fill-opacity="1" cx="2" cy="2" r="0.3189725308275983"/><circle fill="#e2b87a" fill-opacity="1" cx="3" cy="2" r="0.17468462136515156"/><circle fill="#6b542e" fill-opacity="1" cx="4" cy="2" r="0.04271278439072964"/><circle fill="#e2b87a" fill-opacity="1" cx="5" cy="2" r="0.22884421254166654"/><circle fill="#e2b87a" fill-opacity="1" cx="6" cy="2" r="0.3018004741410292"/><circle fill="#e2b87a" fill-opacity="1" cx="7" cy="2" r="0.09253724176835548"/><circle fill="#6b542e" fill-opacity="1" cx="8" cy="2" r="0.08593081794761627"/><circle fill="#e2b87a" fill-opacity="1" cx="9" cy="2" r="0.2972887094911001"/><circle fill="#e2b87a" fill-opacity="1" cx="10" cy="2" r="0.2368811545151841"/><circle fill="#e2b87a" fill-opacity="1" cx="11" cy="2" r="0.04467632406041231"/><circle fill="#6b542e" fill-opacity="1" cx="12" cy="2" r="0.16602511164727587"/><circle fill="#e2b87a" fill-opacity="1" cx="1" cy="3" r="0.3153386762813744"/><circle fill="#e2b87a" fill-opacity="1" cx="2" cy="3" r="0.12317237114820581"/><circle fill="#e2b87a" fill-opacity="1" cx="3" cy="3" r="0.06267931910610729"/><circle fill="#6b542e" fill-opacity="1" cx="4" cy="3" r="0.27402579336989097"/><circle fill="#e2b87a" fill-opacity="1" cx="5" cy="3" r="0.26750848662371873"/><circle fill="#e2b87a" fill-opacity="1" cx="6" cy="3" r="0.058228415714500555"/><circle fill="#e2b87a" fill-opacity="1" cx="7" cy="3" r="0.1311008991330681"/><circle fill="#6b542e" fill-opacity="1" cx="8" cy="3" r="0.31727572886577365"/><circle fill="#e2b87a" fill-opacity="1" cx="9" cy="3" r="0.18537390899296877"/><circle fill="#e2b87a" fill-opacity="1" cx="10" cy="3" r="0.04102039804635617"/><circle fill="#e2b87a" fill-opacity="1" cx="11" cy="3" r="0.21869151969992223"/><circle fill="#6b542e" fill-opacity="1" cx="12" cy="3" r="0.306711913901658"/><circle fill="#e2b87a" fill-opacity="1" cx="1" cy="4" r="0.07976776015819079"/><circle fill="#e2b87a" fill-opacity="1" cx="2" cy="4" r="0.09938408087344042"/><circle fill="#e2b87a" fill-opacity="1" cx="3" cy="4" r="0.30579264572761744"/><circle fill="#6b542e" fill-opacity="1" cx="4" cy="4" r="0.22073159953950747"/><circle fill="#e2b87a" fill-opacity="1" cx="5" cy="4" r="0.04129283034350947"/><circle fill="#e2b87a" fill-opacity="1" cx="6" cy="4" r="0.1832474506791679"/><circle fill="#e2b87a" fill-opacity="1" cx="7" cy="4" r="0.31767751995016685"/><circle fill="#6b542e" fill-opacity="1" cx="8" cy="4" r="0.13309996395796925"/><circle fill="#e2b87a" fill-opacity="1" cx="9" cy="4" r="0.057192793137889275"/><circle fill="#e2b87a" fill-opacity="1" cx="10" cy="4" r="0.2658377804367833"/><circle fill="#e2b87a" fill-opacity="1" cx="11" cy="4" r="0.2755911367351095"/><circle fill="#6b542e" fill-opacity="1" cx="12" cy="4" r="0.0638537112622773"/><circle fill="#e2b87a" fill-opacity="1" cx="1" cy="5" r="0.1475903745792294"/><circle fill="#e2b87a" fill-opacity="1" cx="2" cy="5" r="0.3196125696357953"/><circle fill="#e2b87a" fill-opacity="1" cx="3" cy="5" r="0.1681435054618915"/><circle fill="#6b542e" fill-opacity="1" cx="4" cy="5" r="0.04414669796371157"/><circle fill="#e2b87a" fill-opacity="1" cx="5" cy="5" r="0.2349306860699762"/><circle fill="#e2b87a" fill-opacity="1" cx="6" cy="5" r="0.29843675891742516"/><circle fill="#e2b87a" fill-opacity="1" cx="7" cy="5" r="0.0875172812480367"/><circle fill="#6b542e" fill-opacity="1" cx="8" cy="5" r="0.09088618194010187"/><circle fill="#e2b87a" fill-opacity="1" cx="9" cy="5" r="0.3007375024761209"/><circle fill="#e2b87a" fill-opacity="1" cx="10" cy="5" r="0.23083230241925154"/><circle fill="#e2b87a" fill-opacity="1" cx="11" cy="5" r="0.043145404324129236"/><circle fill="#6b542e" fill-opacity="1" cx="12" cy="5" r="0.1725593632804448"/><circle fill="#e2b87a" fill-opacity="1" cx="1" cy="6" r="0.31351386647783436"/><circle fill="#e2b87a" fill-opacity="1" cx="2" cy="6" r="0.11724698610159584"/><circle fill="#e2b87a" fill-opacity="1" cx="3" cy="6" r="0.06638285520169991"/><circle fill="#6b542e" fill-opacity="1" cx="4" cy="6" r="0.27877692044311553"/><circle fill="#e2b87a" fill-opacity="1" cx="5" cy="6" r="0.2622985391676602"/><circle fill="#e2b87a" fill-opacity="1" cx="6" cy="6" r="0.05512917542819622"/><circle fill="#e2b87a" fill-opacity="1" cx="7" cy="6" r="0.13729350411525645"/><circle fill="#6b542e" fill-opacity="1" cx="8" cy="6" r="0.3184115170380269"/><circle fill="#e2b87a" fill-opacity="1" cx="9" cy="6" r="0.17882118646826878"/><circle fill="#e2b87a" fill-opacity="1" cx="10" cy="6" r="0.04196224229711661"/><circle fill="#e2b87a" fill-opacity="1" cx="11" cy="6" r="0.2249456173178847"/><circle fill="#6b542e" fill-opacity="1" cx="12" cy="6" r="0.3037871204356977"/><circle fill="#e2b87a" fill-opacity="1" cx="1" cy="7" r="0.07530348497153196"/><circle fill="#e2b87a" fill-opacity="1" cx="2" cy="7" r="0.10482885329757471"/><circle fill="#e2b87a" fill-opacity="1" cx="3" cy="7" r="0.3085305795833762"/><circle fill="#6b542e" fill-opacity="1" cx="4" cy="7" r="0.21441872685180427"/><circle fill="#e2b87a" fill-opacity="1" cx="5" cy="7" r="0.04055648116173854"/><circle fill="#e2b87a" fill-opacity="1" cx="6" cy="7" r="0.1897937931847888"/><circle fill="#e2b87a" fill-opacity="1" cx="7" cy="7" r="0.3163382595833014"/><circle fill="#6b542e" fill-opacity="1" cx="8" cy="7" r="0.12697825270303367"/><circle fill="#e2b87a" fill-opacity="1" cx="9" cy="7" r="0.06047302776997736"/><circle fill="#e2b87a" fill-opacity="1" cx="10" cy="7" r="0.27091944737410445"/><circle fill="#e2b87a" fill-opacity="1" cx="11" cy="7" r="0.27069968845065995"/><circle fill="#6b542e" fill-opacity="1" cx="12" cy="7" r="0.060322946490118504"/><circle fill="#e2b87a" fill-opacity="1" cx="1" cy="8" r="0.15399957368174697"/><circle fill="#e2b87a" fill-opacity="1" cx="2" cy="8" r="0.3199466872553517"/><circle fill="#e2b87a" fill-opacity="1" cx="3" cy="8" r="0.16162836969001546"/><circle fill="#6b542e" fill-opacity="1" cx="4" cy="8" r="0.045878295360923124"/><circle fill="#e2b87a" fill-opacity="1" cx="5" cy="8" r="0.24089679464247074"/><circle fill="#e2b87a" fill-opacity="1" cx="6" cy="8" r="0.2948135232640975"/><circle fill="#e2b87a" fill-opacity="1" cx="7" cy="8" r="0.08269997026939696"/><circle fill="#6b542e" fill-opacity="1" cx="8" cy="8" r="0.09603681348776756"/><circle fill="#e2b87a" fill-opacity="1" cx="9" cy="8" r="0.30392173360709596"/><circle fill="#e2b87a" fill-opacity="1" cx="10" cy="8" r="0.22467206580817198"/><circle fill="#e2b87a" fill-opacity="1" cx="11" cy="8" r="0.0419143624619468"/><circle fill="#6b542e" fill-opacity="1" cx="12" cy="8" r="0.17910991895010245"/><circle fill="#e2b87a" fill-opacity="1" cx="1" cy="9" r="0.3113964990568859"/><circle fill="#e2b87a" fill-opacity="1" cx="2" cy="9" r="0.11145910641465942"/><circle fill="#e2b87a" fill-opacity="1" cx="3" cy="9" r="0.07033535091516428"/><circle fill="#6b542e" fill-opacity="1" cx="4" cy="9" r="0.28331160602406574"/><circle fill="#e2b87a" fill-opacity="1" cx="5" cy="9" r="0.256908257899315"/><circle fill="#e2b87a" fill-opacity="1" cx="6" cy="9" r="0.052303553994257436"/><circle fill="#e2b87a" fill-opacity="1" cx="7" cy="9" r="0.14357968822157258"/><circle fill="#6b542e" fill-opacity="1" cx="8" cy="9" r="0.3192440157863815"/><circle fill="#e2b87a" fill-opacity="1" cx="9" cy="9" r="0.17227104697773174"/><circle fill="#e2b87a" fill-opacity="1" cx="10" cy="9" r="0.04320655698462874"/><circle fill="#e2b87a" fill-opacity="1" cx="11" cy="9" r="0.2311012294147372"/><circle fill="#6b542e" fill-opacity="1" cx="12" cy="9" r="0.30059108274637825"/><circle fill="#e2b87a" fill-opacity="1" cx="1" cy="10" r="0.07106862238294795"/><circle fill="#e2b87a" fill-opacity="1" cx="2" cy="10" r="0.1104383418830874"/><circle fill="#e2b87a" fill-opacity="1" cx="3" cy="10" r="0.31098687527585595"/><circle fill="#6b542e" fill-opacity="1" cx="4" cy="10" r="0.20803043532568655"/><circle fill="#e2b87a" fill-opacity="1" cx="5" cy="10" r="0.04012568274192642"/><circle fill="#e2b87a" fill-opacity="1" cx="6" cy="10" r="0.1963186753816409"/><circle fill="#e2b87a" fill-opacity="1" cx="7" cy="10" r="0.31470025274584423"/><circle fill="#6b542e" fill-opacity="1" cx="8" cy="10" r="0.12097272350820351"/><circle fill="#e2b87a" fill-opacity="1" cx="9" cy="10" r="0.06401517172380172"/><circle fill="#e2b87a" fill-opacity="1" cx="10" cy="10" r="0.27580189023379553"/><circle fill="#e2b87a" fill-opacity="1" cx="11" cy="10" r="0.26560949762768005"/><circle fill="#6b542e" fill-opacity="1" cx="12" cy="10" r="0.057054419900082864"/><circle fill="#e2b87a" fill-opacity="1" cx="1" cy="11" r="0.160465745314354"/><circle fill="#e2b87a" fill-opacity="1" cx="2" cy="11" r="0.31997415156265124"/><circle fill="#e2b87a" fill-opacity="1" cx="3" cy="11" r="0.1551534901142434"/><circle fill="#6b542e" fill-opacity="1" cx="4" cy="11" r="0.047903782279778324"/><circle fill="#e2b87a" fill-opacity="1" cx="5" cy="11" r="0.24672946523119327"/><circle fill="#e2b87a" fill-opacity="1" cx="6" cy="11" r="0.29093870647018477"/><circle fill="#e2b87a" fill-opacity="1" cx="7" cy="11" r="0.07809586459761186"/><circle fill="#6b542e" fill-opacity="1" cx="8" cy="11" r="0.10137142644833107"/><circle fill="#e2b87a" fill-opacity="1" cx="9" cy="11" r="0.30683442554827983"/><circle fill="#e2b87a" fill-opacity="1" cx="10" cy="11" r="0.21841394308621623"/><circle fill="#e2b87a" fill-opacity="1" cx="11" cy="11" r="0.04098589595154"/><circle fill="#6b542e" fill-opacity="1" cx="12" cy="11" r="0.18566242497891"/><circle fill="#e2b87a" fill-opacity="1" cx="1" cy="12" r="0.3089912136262655"/><circle fill="#e2b87a" fill-opacity="1" cx="2" cy="12" r="0.10582141457750488"/><circle fill="#e2b87a" fill-opacity="1" cx="3" cy="12" r="0.07452814547770376"/><circle fill="#6b542e" fill-opacity="1" cx="4" cy="12" r="0.28761991364064193"/><circle fill="#e2b87a" fill-opacity="1" cx="5" cy="12" r="0.25134945408508275"/><circle fill="#e2b87a" fill-opacity="1" cx="6" cy="12" r="0.04975774295739917"/><circle fill="#e2b87a" fill-opacity="1" cx="7" cy="12" r="0.14994567706967604"/><circle fill="#6b542e" fill-opacity="1" cx="8" cy="12" r="0.31977140092690276"/><circle fill="#e2b87a" fill-opacity="1" cx="9" cy="12" r="0.1657378432867555"/><circle fill="#e2b87a" fill-opacity="1" cx="10" cy="12" r="0.044750615547600826"/><circle fill="#e2b87a" fill-opacity="1" cx="11" cy="12" r="0.2371448677195149"/><circle fill="#6b542e" fill-opacity="1" cx="12" cy="12" r="0.2971308040401541"/></svg>