<svg xmlns="http://www.w3.org/2000/svg" viewBox="-5 -5 10 10"><rect x="-5" y="-5" width="10" height="10" fill="#101216"/><defs><mask id="mask-43"><circle r="3" fill="#fff"/></mask><filter id="filter-44"><feTurbulence type="fractalNoise" baseFrequency="100"/><feDisplacementMap in="SourceGraphic" scale="3"/></filter><filter id="filter-45"><feGaussianBlur stdDeviation=".7"/></filter><mask id="mask-46"><circle r=".85" cx="2" cy="2" fill="#fff"/></mask><filter id="filter-47"><feTurbulence type="fractalNoise" baseFrequency="100"/><feDisplacementMap in="SourceGraphic" scale="1"/></filter><filter id="filter-48"><feGaussianBlur stdDeviation=".2"/></filter></defs><g mask="url(#mask-43)"><circle r="3" fill="#f0d5a0"/><g filter="url(#filter-44)"><circle cx="4" cy="4" r="6" fill="#b85c38" filter="url(#filter-45)"/></g></g><g transform="rotate(-20)"><circle r="0.013421430739130555" fill="#b85c38" cx="-3.068992620281244" cy="-0.6461397181573826"/><circle r="0.07788780221372044" fill="#f0d5a0" cx="-3.374086683726537" cy="-0.5102523868384888"/><circle r="0.054757019715050696" fill="#b85c38" cx="-3.6472862704572275" cy="-0.36216859213101055"/><circle r="0.05631067489450793" fill="#b85c38" cx="-3.886008886698201" cy="-0.2032881365844463"/><circle r="0.04068111481116406" fill="#b85c38" cx="-4.087997941662483" cy="-0.035112881136238394"/><circle r="0.047788951895250655" fill="#b85c38" cx="-4.251344078592516" cy="0.14076745163928298"/><circle r="0.08456639608884609" fill="#b85c38" cx="-4.374503223476846" cy="0.32269030481810046"/><circle r="0.06792475725710832" fill="#f0d5a0" cx="-4.456311180831803" cy="0.5089360029003072"/><circle r="0.05961725964211078" fill="#b85c38" cx="-4.495994638577553" cy="0.6977440075128595"/><circle r="0.01622233456583802" fill="#f0d5a0" cx="-4.49317847798193" cy="0.8873295593798048"/><circle r="0.02106652439172213" fill="#b85c38" cx="-4.447889319572786" cy="1.075900549247221"/><circle r="0.09554823801420696" fill="#b85c38" cx="-4.3605552715001785" cy="1.2616744582858246"/><circle r="0.024026544481120658" fill="#b85c38" cx="-4.232001882727055" cy="1.4428952078374735"/><circle r="0.011656938896100689" fill="#b85c38" cx="-4.063444339302007" cy="1.6178497592287229"/><circle r="0.06811878763902429" fill="#f0d5a0" cx="-3.8564759774809683" cy="1.784884306737162"/><circle r="0.01732258926054847" fill="#f0d5a0" cx="-3.613053222280699" cy="1.9424199106420834"/><circle r="0.07055890640314487" fill="#b85c38" cx="-3.3354770938365097" cy="2.0889674225838135"/><circle r="0.0042406568083368954" fill="#f0d5a0" cx="-3.0263714563804287" cy="2.2231415621456545"/><circle r="0.09166054629596383" fill="#f0d5a0" cx="-2.6886582154472918" cy="2.3436740115957018"/><circle r="0.04879769543147772" fill="#b85c38" cx="-2.325529697763945" cy="2.449425405006908"/><circle r="0.05295916061168743" fill="#b85c38" cx="-1.940418474908208" cy="2.539396098424968"/><circle r="0.097181372734727" fill="#b85c38" cx="-1.53696491598771" cy="2.6127356192760565"/><circle r="0.019795833441661914" fill="#f0d5a0" cx="-1.1189827760557745" cy="2.668750705691315"/><circle r="0.0185609538805608" fill="#b85c38" cx="-0.6904231455492554" cy="2.7069118597541824"/><circle r="0.0458590653092712" fill="#b85c38" cx="-0.25533710152610756" cy="2.7268583527241863"/><circle r="0.09982117307673223" fill="#f0d5a0" cx="0.1821625862478875" cy="2.728401634923976"/><circle r="0.09860795055470756" fill="#f0d5a0" cx="0.6179403323796087" cy="2.7115271180566887"/><circle r="0.08670112271002403" fill="#f0d5a0" cx="1.04787682860001" cy="2.676394313105812"/><circle r="0.01379654233256158" fill="#f0d5a0" cx="1.467907982651599" cy="2.6233353225140092"/><circle r="0.04273301904776568" fill="#b85c38" cx="1.8740633352314369" cy="2.5528517008939975"/><circle r="0.010416448497689253" fill="#b85c38" cx="2.26250359184308" cy="2.465609713946467"/><circle r="0.06969010690407558" fill="#b85c38" cx="2.6295569147772957" cy="2.3624340404014132"/><circle r="0.07810640341294121" fill="#b85c38" cx="2.971753632161754" cy="2.2442999765170115"/><circle r="0.05396025109098832" fill="#f0d5a0" cx="3.2858590359828517" cy="2.112324216825129"/><circle r="0.0378569866855287" fill="#b85c38" cx="3.568903959047457" cy="1.967754298271004"/><circle r="0.08830441492002808" fill="#f0d5a0" cx="3.8182128418474512" cy="1.8119568075292445"/><circle r="0.04446879491095651" fill="#f0d5a0" cx="4.031429024017358" cy="1.6464044629697212"/><circle r="0.07392963163551607" fill="#b85c38" cx="4.206537021310675" cy="1.4726621933845918"/><circle r="0.037029349296886276" fill="#f0d5a0" cx="4.341881577515654" cy="1.2923723450711087"/><circle r="0.05116445811887858" fill="#b85c38" cx="4.436183311217126" cy="1.1072391571042917"/><circle r="0.07545116772418828" fill="#b85c38" cx="4.488550809499056" cy="0.919012651551206"/><circle r="0.08783428204449058" fill="#f0d5a0" cx="4.498489054268815" cy="0.7294720909089836"/><circle r="0.036372001314133665" fill="#f0d5a0" cx="4.465904101551008" cy="0.5404091591396999"/><circle r="0.01347397874083469" fill="#f0d5a0" cx="4.3911039695185865" cy="0.35361102528794025"/><circle r="0.03204088273506098" fill="#f0d5a0" cx="4.27479572686687" cy="0.1708434497768726"/><circle r="0.03661872879915945" fill="#f0d5a0" cx="4.11807880905342" cy="-0.006165906924835019"/><circle r="0.0801751059755802" fill="#f0d5a0" cx="3.9224346255838345" cy="-0.17574381548587584"/><circle r="0.05841644322860408" fill="#b85c38" cx="3.6897125565834417" cy="-0.33628729436994315"/><circle r="0.009206972389184954" fill="#b85c38" cx="3.422112471026118" cy="-0.48627876245689583"/><circle r="0.026600506276958043" fill="#f0d5a0" cx="3.1221639318714676" cy="-0.6243003843931336"/></g><g mask="url(#mask-46)"><circle r="8" fill="#b85c38"/><g filter="url(#filter-47)"><circle cx="1" cy="1" r="1.5" fill="#f0d5a0" filter="url(#filter-48)"/></g></g></svg>