<svg xmlns="http://www.w3.org/2000/svg" viewBox="0 0 1000 1250" width="1000" height="1250"><rect x="0" y="0" width="1000" height="1250" fill="#101216"/><g fill="#ffffff" stroke="none"><circle cx="30.52" cy="42.45" r="12.5"/><circle cx="114.43" cy="38.56" r="12.5"/><circle cx="187.58" cy="44.01" r="12.5"/><circle cx="246.17" cy="38.6" r="12.5"/><circle cx="336.82" cy="47.89" r="12.5"/><circle cx="420.72" cy="52.73" r="12.5"/><circle cx="487.83" cy="48.78" r="12.5"/><circle cx="577.66" cy="34.82" r="12.5"/><circle cx="636.59" cy="31.31" r="12.5"/><circle cx="730.37" cy="47.41" r="12.5"/><circle cx="815.12" cy="35.45" r="12.5"/><circle cx="887.08" cy="36.59" r="12.5"/><circle cx="960.9" cy="35.16" r="12.5"/><circle cx="32.73" cy="101.03" r="12.5"/><circle cx="117.16" cy="107.78" r="12.5"/><circle cx="188.48" cy="110.7" r="12.5"/><circle cx="268.67" cy="109.81" r="12.5"/><circle cx="339.94" cy="115.36" r="12.5"/><circle cx="417.36" cy="117.06" r="12.5"/><circle cx="490.02" cy="118.71" r="12.5"/><circle cx="573.83" cy="110.4" r="12.5"/><circle cx="647.71" cy="111.12" r="12.5"/><circle cx="730.33" cy="109.14" r="12.5"/><circle cx="813.44" cy="113.33" r="12.5"/><circle cx="886.39" cy="102.57" r="12.5"/><circle cx="961.59" cy="101.67" r="12.5"/><circle cx="35.63" cy="186.06" r="12.5"/><circle cx="124.71" cy="185.82" r="12.5"/><circle cx="201.81" cy="185.82" r="12.5"/><circle cx="282.22" cy="186.51" r="12.5"/><circle cx="346.02" cy="177.9" r="12.5"/><circle cx="414.46" cy="182.71" r="12.5"/><circle cx="499.43" cy="182.24" r="12.5"/><circle cx="569.06" cy="198.88" r="12.5"/><circle cx="652.59" cy="197.36" r="12.5"/><circle cx="731.2" cy="183.34" r="12.5"/><circle cx="812.47" cy="181.13" r="12.5"/><circle cx="885.69" cy="175.76" r="12.5"/><circle cx="959.17" cy="164.89" r="12.5"/><circle cx="41.28" cy="264.28" r="12.5"/><circle cx="119.5" cy="263.26" r="12.5"/><circle cx="190.13" cy="259.43" r="12.5"/><circle cx="267.39" cy="251.3" r="12.5"/><circle cx="351.45" cy="250.22" r="12.5"/><circle cx="419.55" cy="250.86" r="12.5"/><circle cx="499.77" cy="262.18" r="12.5"/><circle cx="570.36" cy="265.89" r="12.5"/><circle cx="649.11" cy="263.36" r="12.5"/><circle cx="719.15" cy="248.15" r="12.5"/><circle cx="798.79" cy="249.77" r="12.5"/><circle cx="878.59" cy="251.61" r="12.5"/><circle cx="962.17" cy="245.82" r="12.5"/><circle cx="42.87" cy="341.01" r="12.5"/><circle cx="120.45" cy="327.62" r="12.5"/><circle cx="192.61" cy="338.97" r="12.5"/><circle cx="266.8" cy="339.44" r="12.5"/><circle cx="355.85" cy="320.21" r="12.5"/><circle cx="443.81" cy="328.65" r="12.5"/><circle cx="488.51" cy="339.96" r="12.5"/><circle cx="564.06" cy="337.79" r="12.5"/><circle cx="634.48" cy="336.66" r="12.5"/><circle cx="713.82" cy="316.52" r="12.5"/><circle cx="791.08" cy="323.15" r="12.5"/><circle cx="864.69" cy="343.48" r="12.5"/><circle cx="951.85" cy="333.09" r="12.5"/><circle cx="47.96" cy="405.48" r="12.5"/><circle cx="112.38" cy="399.43" r="12.5"/><circle cx="178.3" cy="409.94" r="12.5"/><circle cx="263.56" cy="417.62" r="12.5"/><circle cx="347.73" cy="394.88" r="12.5"/><circle cx="422.56" cy="400.91" r="12.5"/><circle cx="499.12" cy="416.53" r="12.5"/><circle cx="572.34" cy="411.76" r="12.5"/><circle cx="636.95" cy="411.32" r="12.5"/><circle cx="721.51" cy="396.26" r="12.5"/><circle cx="793.4" cy="400.04" r="12.5"/><circle cx="869.93" cy="422.61" r="12.5"/><circle cx="954.7" cy="406.44" r="12.5"/><circle cx="40.37" cy="468.91" r="12.5"/><circle cx="94.83" cy="470.54" r="12.5"/><circle cx="189.79" cy="475.78" r="12.5"/><circle cx="260.61" cy="481.05" r="12.5"/><circle cx="326.47" cy="485.32" r="12.5"/><circle cx="403.61" cy="483.55" r="12.5"/><circle cx="505.91" cy="480.9" r="12.5"/><circle cx="579.38" cy="478.09" r="12.5"/><circle cx="643.15" cy="476.59" r="12.5"/><circle cx="735.05" cy="482.49" r="12.5"/><circle cx="799.09" cy="487.52" r="12.5"/><circle cx="867.08" cy="477.06" r="12.5"/><circle cx="957.63" cy="490.36" r="12.5"/><circle cx="37.72" cy="545.51" r="12.5"/><circle cx="108.7" cy="536.47" r="12.5"/><circle cx="189.23" cy="550.92" r="12.5"/><circle cx="263.4" cy="562.02" r="12.5"/><circle cx="335.98" cy="562.61" r="12.5"/><circle cx="417.48" cy="565.27" r="12.5"/><circle cx="505.63" cy="545.53" r="12.5"/><circle cx="568.55" cy="556.03" r="12.5"/><circle cx="644.43" cy="555.49" r="12.5"/><circle cx="741.54" cy="571.75" r="12.5"/><circle cx="818.09" cy="568.42" r="12.5"/><circle cx="879.05" cy="548.31" r="12.5"/><circle cx="962.21" cy="565.24" r="12.5"/><circle cx="46.93" cy="616.38" r="12.5"/><circle cx="134.63" cy="618.1" r="12.5"/><circle cx="209.9" cy="620.29" r="12.5"/><circle cx="281.45" cy="629.92" r="12.5"/><circle cx="343.48" cy="627.26" r="12.5"/><circle cx="422.88" cy="628.3" r="12.5"/><circle cx="508.09" cy="615.85" r="12.5"/><circle cx="571.16" cy="631.45" r="12.5"/><circle cx="645.2" cy="633.94" r="12.5"/><circle cx="735.72" cy="643.58" r="12.5"/><circle cx="825.75" cy="639.36" r="12.5"/><circle cx="890.8" cy="630.92" r="12.5"/><circle cx="961.7" cy="637.64" r="12.5"/><circle cx="46.59" cy="685.13" r="12.5"/><circle cx="131.03" cy="689.83" r="12.5"/><circle cx="214.51" cy="702.23" r="12.5"/><circle cx="279.27" cy="710.01" r="12.5"/><circle cx="346.75" cy="704.19" r="12.5"/><circle cx="421.9" cy="694.55" r="12.5"/><circle cx="507.7" cy="675" r="12.5"/><circle cx="572.83" cy="705.64" r="12.5"/><circle cx="645.72" cy="717.55" r="12.5"/><circle cx="738.26" cy="713.9" r="12.5"/><circle cx="823.28" cy="699.03" r="12.5"/><circle cx="887.48" cy="711.63" r="12.5"/><circle cx="956.84" cy="698.84" r="12.5"/><circle cx="47" cy="771.39" r="12.5"/><circle cx="121.56" cy="764.63" r="12.5"/><circle cx="205.33" cy="772.56" r="12.5"/><circle cx="273.99" cy="772.09" r="12.5"/><circle cx="340.03" cy="758.82" r="12.5"/><circle cx="410.68" cy="760.88" r="12.5"/><circle cx="510.74" cy="779.43" r="12.5"/><circle cx="581.74" cy="790.89" r="12.5"/><circle cx="659.16" cy="789.13" r="12.5"/><circle cx="740.94" cy="774.85" r="12.5"/><circle cx="823.24" cy="772.77" r="12.5"/><circle cx="891.68" cy="781.34" r="12.5"/><circle cx="951.62" cy="785.15" r="12.5"/><circle cx="43.54" cy="850.26" r="12.5"/><circle cx="123.78" cy="851.81" r="12.5"/><circle cx="198.95" cy="838.48" r="12.5"/><circle cx="269.59" cy="833.68" r="12.5"/><circle cx="334.93" cy="833.2" r="12.5"/><circle cx="413.43" cy="839.75" r="12.5"/><circle cx="507.28" cy="860.94" r="12.5"/><circle cx="584.61" cy="861.34" r="12.5"/><circle cx="661.32" cy="858.29" r="12.5"/><circle cx="746.52" cy="852.46" r="12.5"/><circle cx="818.67" cy="847.49" r="12.5"/><circle cx="891.45" cy="852.31" r="12.5"/><circle cx="954.54" cy="844.76" r="12.5"/><circle cx="51.8" cy="928.1" r="12.5"/><circle cx="121.96" cy="913.24" r="12.5"/><circle cx="200.25" cy="910.38" r="12.5"/><circle cx="263.8" cy="909.27" r="12.5"/><circle cx="341.43" cy="911.42" r="12.5"/><circle cx="430.43" cy="913.16" r="12.5"/><circle cx="511.29" cy="925.44" r="12.5"/><circle cx="581.44" cy="930.49" r="12.5"/><circle cx="661.18" cy="937.92" r="12.5"/><circle cx="734.2" cy="920.07" r="12.5"/><circle cx="807.96" cy="920.44" r="12.5"/><circle cx="894.65" cy="923.85" r="12.5"/><circle cx="966.3" cy="915.97" r="12.5"/><circle cx="48.32" cy="993.21" r="12.5"/><circle cx="114.56" cy="976.54" r="12.5"/><circle cx="190.44" cy="977.52" r="12.5"/><circle cx="261.65" cy="980.59" r="12.5"/><circle cx="354.82" cy="1008.9" r="12.5"/><circle cx="436.68" cy="999.25" r="12.5"/><circle cx="516.8" cy="995.31" r="12.5"/><circle cx="588.65" cy="999.04" r="12.5"/><circle cx="654.98" cy="1007.03" r="12.5"/><circle cx="724.43" cy="990.48" r="12.5"/><circle cx="794.07" cy="985" r="12.5"/><circle cx="899.09" cy="978.53" r="12.5"/><circle cx="965.78" cy="995.49" r="12.5"/><circle cx="43.32" cy="1062.1" r="12.5"/><circle cx="117.91" cy="1048.08" r="12.5"/><circle cx="193.04" cy="1050.96" r="12.5"/><circle cx="268.84" cy="1061.63" r="12.5"/><circle cx="336.01" cy="1085.54" r="12.5"/><circle cx="420.19" cy="1071.67" r="12.5"/><circle cx="491.87" cy="1065.64" r="12.5"/><circle cx="576.52" cy="1069.76" r="12.5"/><circle cx="640.93" cy="1076.57" r="12.5"/><circle cx="717.97" cy="1056.47" r="12.5"/><circle cx="795.25" cy="1064.09" r="12.5"/><circle cx="894.24" cy="1053.65" r="12.5"/><circle cx="971.82" cy="1074.48" r="12.5"/><circle cx="46.27" cy="1126.79" r="12.5"/><circle cx="131.13" cy="1119.79" r="12.5"/><circle cx="201.67" cy="1136.42" r="12.5"/><circle cx="265.3" cy="1144.89" r="12.5"/><circle cx="335.52" cy="1152.1" r="12.5"/><circle cx="406.45" cy="1141.1" r="12.5"/><circle cx="475.49" cy="1119.31" r="12.5"/><circle cx="563.52" cy="1138.1" r="12.5"/><circle cx="636.53" cy="1145.53" r="12.5"/><circle cx="711.6" cy="1134.87" r="12.5"/><circle cx="804.31" cy="1145.14" r="12.5"/><circle cx="894.39" cy="1149.75" r="12.5"/><circle cx="965.39" cy="1155.41" r="12.5"/><circle cx="33.38" cy="1199.93" r="12.5"/><circle cx="118.63" cy="1195.42" r="12.5"/><circle cx="188.81" cy="1214.88" r="12.5"/><circle cx="267.66" cy="1225.78" r="12.5"/><circle cx="345.72" cy="1224.3" r="12.5"/><circle cx="417.36" cy="1212.77" r="12.5"/><circle cx="488.05" cy="1200.2" r="12.5"/><circle cx="555.85" cy="1214.41" r="12.5"/><circle cx="637.14" cy="1216.1" r="12.5"/><circle cx="727.54" cy="1214.72" r="12.5"/><circle cx="802.01" cy="1216.37" r="12.5"/><circle cx="887.35" cy="1224.54" r="12.5"/><circle cx="971.18" cy="1228.75" r="12.5"/></g></svg>