<svg xmlns="http://www.w3.org/2000/svg" viewBox="-50 -50 100 100" stroke-linecap="round" stroke="#000"><path transform="rotate(60)" d="M 0 0 0 44 M 0 -9 L -9 -15.8 M 0 -9 L 9 -15.8 M 0 -18 L -9 -25.8 M 0 -18 L 9 -25.8 M 0 -27 L -9 -35.8 M 0 -27 L 9 -35.8"/><path transform="rotate(120)" d="M 0 0 0 44 M 0 -9 L -9 -15.8 M 0 -9 L 9 -15.8 M 0 -18 L -9 -25.8 M 0 -18 L 9 -25.8 M 0 -27 L -9 -35.8 M 0 -27 L 9 -35.8"/><path transform="rotate(180)" d="M 0 0 0 44 M 0 -9 L -9 -15.8 M 0 -9 L 9 -15.8 M 0 -18 L -9 -25.8 M 0 -18 L 9 -25.8 M 0 -27 L -9 -35.8 M 0 -27 L 9 -35.8"/><path transform="rotate(240)" d="M 0 0 0 44 M 0 -9 L -9 -15.8 M 0 -9 L 9 -15.8 M 0 -18 L -9 -25.8 M 0 -18 L 9 -25.8 M 0 -27 L -9 -35.8 M 0 -27 L 9 -35.8"/><path transform="rotate(300)" d="M 0 0 0 44 M 0 -9 L -9 -15.8 M 0 -9 L 9 -15.8 M 0 -18 L -9 -25.8 M 0 -18 L 9 -25.8 M 0 -27 L -9 -35.8 M 0 -27 L 9 -35.8"/><path transform="rotate(360)" d="M 0 0 0 44 M 0 -9 L -9 -15.8 M 0 -9 L 9 -15.8 M 0 -18 L -9 -25.8 M 0 -18 L 9 -25.8 M 0 -27 L -9 -35.8 M 0 -27 L 9 -35.8"/></svg>