<svg xmlns="http://www.w3.org/2000/svg" viewBox="0 0 1000 1400" width="1000" height="1400"><rect x="0" y="0" width="1000" height="1400" fill="#f2eee6"/><g fill="none" stroke="#101216" stroke-linecap="butt"><path d="M 62.5 165.61 A 61 61 0 0 1 1.5 104.61" fill="none" stroke-width="28"/><path d="M 248.5 104.61 A 61 61 0 0 1 187.5 165.61" fill="none" stroke-width="28"/><path d="M 312.5 165.61 A 61 61 0 0 1 251.5 104.61" fill="none" stroke-width="28"/><path d="M 498.5 104.61 A 61 61 0 0 1 437.5 165.61" fill="none" stroke-width="28"/><path d="M 562.5 165.61 A 61 61 0 0 1 501.5 104.61" fill="none" stroke-width="28"/><path d="M 748.5 104.61 A 61 61 0 0 1 687.5 165.61" fill="none" stroke-width="28"/><path d="M 812.5 165.61 A 61 61 0 0 1 751.5 104.61" fill="none" stroke-width="28"/><path d="M 937.5 165.61 A 61 61 0 0 1 876.5 104.61" fill="none" stroke-width="28"/><path d="M 186 212.86 A 61 61 0 0 1 125 273.86" fill="none" stroke-width="28"/><path d="M 311 212.86 A 61 61 0 0 1 250 273.86" fill="none" stroke-width="28"/><path d="M 375 273.86 A 61 61 0 0 1 314 212.86" fill="none" stroke-width="28"/><path d="M 500 273.86 A 61 61 0 0 1 439 212.86" fill="none" stroke-width="28"/><path d="M 625 273.86 A 61 61 0 0 1 564 212.86" fill="none" stroke-width="28"/><path d="M 750 273.86 A 61 61 0 0 1 689 212.86" fill="none" stroke-width="28"/><path d="M 936 212.86 A 61 61 0 0 1 875 273.86" fill="none" stroke-width="28"/><path d="M 1061 212.86 A 61 61 0 0 1 1000 273.86" fill="none" stroke-width="28"/><path d="M 123.5 321.11 A 61 61 0 0 1 62.5 382.11" fill="none" stroke-width="28"/><path d="M 187.5 382.11 A 61 61 0 0 1 126.5 321.11" fill="none" stroke-width="28"/><path d="M 373.5 321.11 A 61 61 0 0 1 312.5 382.11" fill="none" stroke-width="28"/><path d="M 498.5 321.11 A 61 61 0 0 1 437.5 382.11" fill="none" stroke-width="28"/><path d="M 623.5 321.11 A 61 61 0 0 1 562.5 382.11" fill="none" stroke-width="28"/><path d="M 687.5 382.11 A 61 61 0 0 1 626.5 321.11" fill="none" stroke-width="28"/><path d="M 873.5 321.11 A 61 61 0 0 1 812.5 382.11" fill="none" stroke-width="28"/><path d="M 998.5 321.11 A 61 61 0 0 1 937.5 382.11" fill="none" stroke-width="28"/><path d="M 125 490.37 A 61 61 0 0 1 64 429.37" fill="none" stroke-width="28"/><path d="M 250 490.37 A 61 61 0 0 1 189 429.37" fill="none" stroke-width="28"/><path d="M 375 490.37 A 61 61 0 0 1 314 429.37" fill="none" stroke-width="28"/><path d="M 500 490.37 A 61 61 0 0 1 439 429.37" fill="none" stroke-width="28"/><path d="M 625 490.37 A 61 61 0 0 1 564 429.37" fill="none" stroke-width="28"/><path d="M 811 429.37 A 61 61 0 0 1 750 490.37" fill="none" stroke-width="28"/><path d="M 936 429.37 A 61 61 0 0 1 875 490.37" fill="none" stroke-width="28"/><path d="M 1061 429.37 A 61 61 0 0 1 1000 490.37" fill="none" stroke-width="28"/><path d="M 123.5 537.62 A 61 61 0 0 1 62.5 598.62" fill="none" stroke-width="28"/><path d="M 187.5 598.62 A 61 61 0 0 1 126.5 537.62" fill="none" stroke-width="28"/><path d="M 312.5 598.62 A 61 61 0 0 1 251.5 537.62" fill="none" stroke-width="28"/><path d="M 437.5 598.62 A 61 61 0 0 1 376.5 537.62" fill="none" stroke-width="28"/><path d="M 562.5 598.62 A 61 61 0 0 1 501.5 537.62" fill="none" stroke-width="28"/><path d="M 687.5 598.62 A 61 61 0 0 1 626.5 537.62" fill="none" stroke-width="28"/><path d="M 812.5 598.62 A 61 61 0 0 1 751.5 537.62" fill="none" stroke-width="28"/><path d="M 937.5 598.62 A 61 61 0 0 1 876.5 537.62" fill="none" stroke-width="28"/><path d="M 186 645.87 A 61 61 0 0 1 125 706.87" fill="none" stroke-width="28"/><path d="M 250 706.87 A 61 61 0 0 1 189 645.87" fill="none" stroke-width="28"/><path d="M 436 645.87 A 61 61 0 0 1 375 706.87" fill="none" stroke-width="28"/><path d="M 500 706.87 A 61 61 0 0 1 439 645.87" fill="none" stroke-width="28"/><path d="M 625 706.87 A 61 61 0 0 1 564 645.87" fill="none" stroke-width="28"/><path d="M 750 706.87 A 61 61 0 0 1 689 645.87" fill="none" stroke-width="28"/><path d="M 875 706.87 A 61 61 0 0 1 814 645.87" fill="none" stroke-width="28"/><path d="M 1061 645.87 A 61 61 0 0 1 1000 706.87" fill="none" stroke-width="28"/><path d="M 123.5 754.13 A 61 61 0 0 1 62.5 815.13" fill="none" stroke-width="28"/><path d="M 248.5 754.13 A 61 61 0 0 1 187.5 815.13" fill="none" stroke-width="28"/><path d="M 312.5 815.13 A 61 61 0 0 1 251.5 754.13" fill="none" stroke-width="28"/><path d="M 498.5 754.13 A 61 61 0 0 1 437.5 815.13" fill="none" stroke-width="28"/><path d="M 562.5 815.13 A 61 61 0 0 1 501.5 754.13" fill="none" stroke-width="28"/><path d="M 748.5 754.13 A 61 61 0 0 1 687.5 815.13" fill="none" stroke-width="28"/><path d="M 873.5 754.13 A 61 61 0 0 1 812.5 815.13" fill="none" stroke-width="28"/><path d="M 937.5 815.13 A 61 61 0 0 1 876.5 754.13" fill="none" stroke-width="28"/><path d="M 125 923.38 A 61 61 0 0 1 64 862.38" fill="none" stroke-width="28"/><path d="M 250 923.38 A 61 61 0 0 1 189 862.38" fill="none" stroke-width="28"/><path d="M 436 862.38 A 61 61 0 0 1 375 923.38" fill="none" stroke-width="28"/><path d="M 561 862.38 A 61 61 0 0 1 500 923.38" fill="none" stroke-width="28"/><path d="M 686 862.38 A 61 61 0 0 1 625 923.38" fill="none" stroke-width="28"/><path d="M 750 923.38 A 61 61 0 0 1 689 862.38" fill="none" stroke-width="28"/><path d="M 936 862.38 A 61 61 0 0 1 875 923.38" fill="none" stroke-width="28"/><path d="M 1000 923.38 A 61 61 0 0 1 939 862.38" fill="none" stroke-width="28"/><path d="M 123.5 970.63 A 61 61 0 0 1 62.5 1031.63" fill="none" stroke-width="28"/><path d="M 187.5 1031.63 A 61 61 0 0 1 126.5 970.63" fill="none" stroke-width="28"/><path d="M 373.5 970.63 A 61 61 0 0 1 312.5 1031.63" fill="none" stroke-width="28"/><path d="M 437.5 1031.63 A 61 61 0 0 1 376.5 970.63" fill="none" stroke-width="28"/><path d="M 562.5 1031.63 A 61 61 0 0 1 501.5 970.63" fill="none" stroke-width="28"/><path d="M 687.5 1031.63 A 61 61 0 0 1 626.5 970.63" fill="none" stroke-width="28"/><path d="M 812.5 1031.63 A 61 61 0 0 1 751.5 970.63" fill="none" stroke-width="28"/><path d="M 998.5 970.63 A 61 61 0 0 1 937.5 1031.63" fill="none" stroke-width="28"/><path d="M 186 1078.89 A 61 61 0 0 1 125 1139.89" fill="none" stroke-width="28"/><path d="M 250 1139.89 A 61 61 0 0 1 189 1078.89" fill="none" stroke-width="28"/><path d="M 436 1078.89 A 61 61 0 0 1 375 1139.89" fill="none" stroke-width="28"/><path d="M 561 1078.89 A 61 61 0 0 1 500 1139.89" fill="none" stroke-width="28"/><path d="M 686 1078.89 A 61 61 0 0 1 625 1139.89" fill="none" stroke-width="28"/><path d="M 750 1139.89 A 61 61 0 0 1 689 1078.89" fill="none" stroke-width="28"/><path d="M 936 1078.89 A 61 61 0 0 1 875 1139.89" fill="none" stroke-width="28"/><path d="M 1000 1139.89 A 61 61 0 0 1 939 1078.89" fill="none" stroke-width="28"/><path d="M 123.5 1187.14 A 61 61 0 0 1 62.5 1248.14" fill="none" stroke-width="28"/><path d="M 248.5 1187.14 A 61 61 0 0 1 187.5 1248.14" fill="none" stroke-width="28"/><path d="M 373.5 1187.14 A 61 61 0 0 1 312.5 1248.14" fill="none" stroke-width="28"/><path d="M 498.5 1187.14 A 61 61 0 0 1 437.5 1248.14" fill="none" stroke-width="28"/><path d="M 623.5 1187.14 A 61 61 0 0 1 562.5 1248.14" fill="none" stroke-width="28"/><path d="M 687.5 1248.14 A 61 61 0 0 1 626.5 1187.14" fill="none" stroke-width="28"/><path d="M 873.5 1187.14 A 61 61 0 0 1 812.5 1248.14" fill="none" stroke-width="28"/><path d="M 937.5 1248.14 A 61 61 0 0 1 876.5 1187.14" fill="none" stroke-width="28"/><path d="M 186 1295.39 A 61 61 0 0 1 125 1356.39" fill="none" stroke-width="28"/><path d="M 250 1356.39 A 61 61 0 0 1 189 1295.39" fill="none" stroke-width="28"/><path d="M 375 1356.39 A 61 61 0 0 1 314 1295.39" fill="none" stroke-width="28"/><path d="M 561 1295.39 A 61 61 0 0 1 500 1356.39" fill="none" stroke-width="28"/><path d="M 686 1295.39 A 61 61 0 0 1 625 1356.39" fill="none" stroke-width="28"/><path d="M 811 1295.39 A 61 61 0 0 1 750 1356.39" fill="none" stroke-width="28"/><path d="M 936 1295.39 A 61 61 0 0 1 875 1356.39" fill="none" stroke-width="28"/><path d="M 1061 1295.39 A 61 61 0 0 1 1000 1356.39" fill="none" stroke-width="28"/></g></svg>